<svg width="355" height="47" viewBox="0 0 355 47" fill="none" xmlns="http://www.w3.org/2000/svg">
<path d="M355 26.9233C354.762 27.9855 354.568 29.0642 354.279 30.1098C352.128 37.8423 346.843 42.2561 339.135 43.9512C333.928 45.0959 328.715 44.8042 323.663 43.1531C316.604 40.8472 309.428 39.6144 301.992 40.0161C301.676 40.0327 301.354 39.9721 301.276 39.9611C302.014 29.2348 301.986 18.5745 301.287 7.80958C304.931 7.80958 308.912 7.80958 312.556 7.80958C312.367 11.2218 312.084 14.5899 312.023 17.9526C311.935 22.8177 312.001 27.6883 312.001 32.5534C312.001 33.0982 312.001 33.6431 312.001 34.0723C315.739 34.6777 319.304 35.3602 322.898 35.817C325.998 36.2132 329.148 36.67 332.253 36.5544C342.379 36.1747 347.93 25.729 342.75 17.0225C341.137 14.3037 338.68 12.9829 335.536 12.8618C331.632 12.7132 331.632 12.7187 331.632 16.5547C331.632 21.9261 331.632 27.292 331.632 33.0322C329.17 32.7845 326.791 32.6579 324.456 32.2727C321.384 31.7664 321.423 31.6783 321.395 28.5798C321.34 22.7516 321.29 16.9234 321.157 11.0952C321.129 9.97797 320.73 8.86626 320.463 7.59495C327.473 8.05724 334.565 6.7364 341.464 8.53605C348.734 10.4348 353.514 14.9036 354.74 22.559C354.784 22.8232 354.911 23.0708 355 23.3295C355 24.5348 355 25.729 355 26.9233Z" fill="url(#paint0_linear_161_329)"/>
<path d="M11.1188 26.3288C11.3407 30.8032 11.568 35.305 11.8009 39.9115C8.07442 39.9115 3.98746 39.9115 0.00585938 39.9115C1.36448 30.495 0.460582 21.0014 0.638035 11.5354C0.70458 7.79848 0.327493 4.05609 0.138949 0C7.12061 0.253162 14.5182 0.00550351 21.7716 0.92459C29.036 1.84368 32.7071 8.45339 30.5888 15.1567C29.7126 17.9249 27.8937 19.9282 25.4093 21.3756C24.694 21.7884 23.9454 22.1406 22.8917 22.691C24.5886 24.9309 26.1247 27.1984 27.9048 29.2622C31.3374 33.2412 35.4188 36.3892 40.6758 37.5945C51.9885 40.1866 59.5025 33.2247 58.2659 21.8104C58.044 19.7631 57.3453 17.6773 56.4303 15.8226C55.2103 13.335 52.9922 12.0197 50.103 12.1738C47.1418 12.3279 45.1842 13.9624 44.1195 16.5931C42.6389 20.2639 42.7665 23.9733 44.4744 27.5451C45.6057 29.9116 47.5854 31.0673 50.2749 31.0728C50.7186 31.0728 51.3119 31.5241 51.5337 31.9259C51.6446 32.135 51.1788 32.8725 50.8073 33.0816C45.8663 35.8664 36.7441 34.2153 34.2986 26.626C31.7866 18.8 35.4022 9.68618 45.9717 7.46276C50.2195 6.57119 54.4451 6.79684 58.471 8.613C66.7115 12.3334 70.3326 21.8159 66.7947 30.6491C63.9055 37.8587 58.2381 41.9423 50.8517 43.6539C38.5963 46.4937 28.2042 42.8669 19.5589 34.0447C17.4406 31.8818 15.6106 29.4328 13.7363 27.0443C13.1096 26.2518 12.5163 25.839 11.1188 26.3288ZM11.4183 6.25199C11.4183 6.9014 11.4183 7.39122 11.4183 7.88653C11.4183 11.3703 11.4183 14.8595 11.4183 18.3432C11.4183 21.2711 11.7732 21.5683 14.74 21.117C14.8786 21.095 15.0117 21.0564 15.1448 21.0289C19.1098 20.1704 21.5553 16.3179 21.0451 11.7225C20.6625 8.24976 19.1209 6.54918 15.9433 6.274C14.5293 6.15293 13.093 6.25199 11.4183 6.25199Z" fill="url(#paint1_linear_161_329)"/>
<path d="M166.151 45.0463C166.423 43.021 166.872 41.2158 166.872 39.4107C166.894 27.9303 166.839 16.45 166.739 4.9752C166.728 3.43972 166.323 1.90974 166.09 0.313721C174.647 0.313721 183.276 0.313721 192.054 0.313721C192.315 2.56466 192.575 4.8266 192.803 6.80787C187.889 6.59873 183.048 6.3951 178.118 6.19147C178.118 10.6383 178.118 14.7549 178.118 18.9046C182.222 18.9046 186.298 18.9046 190.534 18.9046C190.534 21.0069 190.534 23.3129 190.534 25.773C188.982 25.6519 187.44 25.4923 185.893 25.4263C183.675 25.3327 181.457 25.3217 179.238 25.2336C178.412 25.2006 178.085 25.4813 178.091 26.3343C178.124 29.8676 178.135 33.4063 178.085 36.9396C178.068 37.9578 178.606 38.1119 179.416 38.277C185.544 39.5318 191.549 38.8933 197.522 37.3083C201.37 36.2847 205.252 35.4316 209.267 35.5362C209.86 35.5527 210.576 35.8829 211.008 36.3012C212.084 37.3469 213.027 38.5191 214.091 39.7134C211.668 39.9941 209.322 39.9996 207.132 40.5774C203.755 41.469 200.416 42.5972 197.172 43.8905C186.886 47.9907 176.505 47.6604 166.151 45.0463Z" fill="url(#paint2_linear_161_329)"/>
<path d="M204.154 22.5753C204.154 26.0811 204.154 29.141 204.154 32.2395C201.581 32.7348 199.108 33.2136 196.557 33.7034C195.991 25.0739 197.217 16.3839 195.692 7.66082C198.354 7.66082 201.154 7.61129 203.949 7.71035C204.415 7.72686 204.942 8.29372 205.302 8.71749C209.528 13.7697 213.72 18.8495 217.929 23.9182C218.267 24.3255 218.633 24.7162 219.143 25.0629C218.955 19.3833 219.925 13.7092 218.45 8.01305C221.572 8.01305 224.678 8.01305 227.789 8.01305C226.563 15.1676 226.63 35.294 227.933 39.8123C225.515 39.8123 223.119 39.9719 220.763 39.7298C219.842 39.6362 218.905 38.7502 218.173 38.0237C216.243 36.114 214.38 34.1272 212.561 32.1074C210.127 29.3997 207.764 26.6314 205.369 23.8907C205.075 23.555 204.764 23.2303 204.154 22.5753Z" fill="url(#paint3_linear_161_329)"/>
<path d="M103.073 7.72137C106.073 7.72137 109.344 7.68835 112.611 7.7709C112.954 7.78191 113.437 8.3983 113.598 8.82757C116.764 17.1874 119.875 25.5748 123.042 33.9346C123.779 35.8883 124.666 37.7926 125.493 39.7463C121.461 39.7463 117.335 39.7463 113.032 39.7463C113.936 37.2972 113.221 35.1234 112.211 33.032C112.012 32.6193 111.391 32.168 110.953 32.1515C108.318 32.0689 105.679 32.1349 103.045 32.0964C102.313 32.0854 101.952 32.3441 101.758 33.0155C101.137 35.1949 99.9227 37.3083 101.281 39.7573C98.3756 39.7573 95.6362 39.7573 92.7415 39.7573C93.1851 38.8933 93.7174 38.0953 94.0224 37.2257C96.9837 28.7943 99.9505 20.3629 102.795 11.8875C103.211 10.6602 102.989 9.22383 103.073 7.72137ZM110.076 26.9506C109.028 23.9567 108.025 21.0839 107.021 18.2166C106.916 18.2331 106.81 18.2496 106.705 18.2661C105.757 21.1169 104.803 23.9622 103.805 26.9506C105.945 26.9506 107.903 26.9506 110.076 26.9506Z" fill="url(#paint4_linear_161_329)"/>
<path d="M274.603 7.90295C275.301 7.90295 275.989 7.90295 276.677 7.90295C282.643 7.90295 288.61 7.92496 294.577 7.88093C295.581 7.87543 295.986 8.18362 296.069 9.15775C296.207 10.7923 296.435 12.4158 296.596 13.7917C293.041 13.5551 289.531 13.3184 285.904 13.0762C285.904 15.795 285.904 18.1945 285.904 20.8197C288.466 20.6986 290.978 20.583 293.601 20.4565C293.601 22.5313 293.601 24.6171 293.601 26.6149C291.35 26.4498 289.148 26.3067 286.952 26.1141C286.004 26.0315 285.61 26.3562 285.643 27.3358C285.699 29.0805 285.716 30.8251 285.638 32.5697C285.588 33.6374 285.998 34.0721 287.03 34.1107C290.44 34.2428 293.862 34.5344 297.389 33.2631C297.117 35.5581 296.862 37.71 296.596 39.9389C289.237 39.9389 281.95 39.9389 274.847 39.9389C275.989 30.4894 275.312 21.0563 275.312 11.6453C275.301 10.4401 274.863 9.2348 274.603 7.90295Z" fill="url(#paint5_linear_161_329)"/>
<path d="M251.767 21.5518C251.767 23.6762 251.767 25.762 251.767 27.7378C249.432 27.5672 247.186 27.3636 244.94 27.281C244.574 27.2645 243.864 27.7708 243.859 28.0405C243.837 31.0674 243.87 34.0999 244.009 37.1213C244.047 38.0129 244.458 38.8879 244.729 39.8896C240.726 39.8896 236.711 39.8896 232.552 39.8896C233.849 36.4499 233.428 32.9496 233.467 29.4879C233.517 24.7604 233.539 20.0274 233.456 15.2999C233.417 12.8948 233.123 10.4898 232.94 8.0022C239.7 8.0022 246.742 8.0022 253.918 8.0022C254.179 10.0495 254.439 12.0748 254.656 13.7589C251.373 13.5828 248.168 13.4287 244.962 13.2305C244.003 13.17 243.654 13.5112 243.681 14.4853C243.737 16.5492 243.737 18.6185 243.681 20.6823C243.654 21.6619 244.036 21.9811 244.99 21.9151C247.192 21.772 249.404 21.6784 251.767 21.5518Z" fill="url(#paint6_linear_161_329)"/>
<path d="M65.9849 7.71602C69.4785 7.71602 72.7891 7.683 76.1052 7.76005C76.4879 7.77105 76.9925 8.3214 77.2032 8.73967C79.0776 12.4215 80.902 16.1309 82.7431 19.8293C82.9427 20.231 83.1645 20.6218 83.5638 21.3592C85.1941 17.8425 86.7968 14.6615 88.111 11.3759C88.5269 10.3412 88.1776 9.00934 88.1776 7.74354C90.6453 7.74354 93.3958 7.74354 96.2683 7.74354C96.0742 8.20033 95.9411 8.57457 95.7581 8.93229C92.8801 14.5789 89.9909 20.22 87.1128 25.8666C86.9298 26.2243 86.7191 26.6371 86.7302 27.0168C86.8633 30.5446 87.0186 34.0723 87.2293 37.5946C87.2737 38.31 87.5842 39.009 87.8116 39.873C83.7302 39.873 79.682 39.873 75.584 39.873C77.1422 35.5473 76.2383 31.1115 76.4324 26.7472C76.449 26.3729 76.205 25.9602 76.0165 25.6024C73.3658 20.6163 70.7206 15.6246 68.0256 10.6604C67.5043 9.69728 66.7779 8.84974 65.9849 7.71602Z" fill="url(#paint7_linear_161_329)"/>
<path d="M140.537 7.89209C139.245 11.7445 139.783 15.619 139.722 19.4495C139.65 24.0779 139.705 28.7064 139.705 33.4559C143.804 34.1383 147.763 34.1879 151.85 33.0486C151.589 35.3216 151.34 37.4955 151.079 39.7794C143.576 39.7794 136.106 39.7794 128.859 39.7794C129.774 29.1962 129.729 18.5909 128.864 7.89209C132.513 7.89209 136.472 7.89209 140.537 7.89209Z" fill="url(#paint8_linear_161_329)"/>
<path d="M257.817 7.9856C261.804 7.9856 265.763 7.9856 269.501 7.9856C268.597 18.6404 268.591 29.2897 269.484 40.0271C265.863 40.0271 261.87 40.0271 257.806 40.0271C259.336 34.7767 258.615 29.3998 258.621 24.0779C258.632 18.734 259.308 13.3405 257.817 7.9856Z" fill="url(#paint9_linear_161_329)"/>
<defs>
<linearGradient id="paint0_linear_161_329" x1="328.138" y1="7.55518" x2="328.138" y2="44.6403" gradientUnits="userSpaceOnUse">
<stop stop-color="white"/>
<stop offset="1" stop-color="white" stop-opacity="0"/>
</linearGradient>
<linearGradient id="paint1_linear_161_329" x1="34.0765" y1="0" x2="34.0765" y2="44.6031" gradientUnits="userSpaceOnUse">
<stop stop-color="white"/>
<stop offset="1" stop-color="white" stop-opacity="0"/>
</linearGradient>
<linearGradient id="paint2_linear_161_329" x1="190.091" y1="0.313721" x2="190.091" y2="46.9958" gradientUnits="userSpaceOnUse">
<stop stop-color="white"/>
<stop offset="1" stop-color="white" stop-opacity="0"/>
</linearGradient>
<linearGradient id="paint3_linear_161_329" x1="211.812" y1="7.64844" x2="211.812" y2="39.8639" gradientUnits="userSpaceOnUse">
<stop stop-color="white"/>
<stop offset="1" stop-color="white" stop-opacity="0"/>
</linearGradient>
<linearGradient id="paint4_linear_161_329" x1="109.117" y1="7.71484" x2="109.117" y2="39.7573" gradientUnits="userSpaceOnUse">
<stop stop-color="white"/>
<stop offset="1" stop-color="white" stop-opacity="0"/>
</linearGradient>
<linearGradient id="paint5_linear_161_329" x1="285.996" y1="7.88086" x2="285.996" y2="39.9389" gradientUnits="userSpaceOnUse">
<stop stop-color="white"/>
<stop offset="1" stop-color="white" stop-opacity="0"/>
</linearGradient>
<linearGradient id="paint6_linear_161_329" x1="243.604" y1="8.0022" x2="243.604" y2="39.8896" gradientUnits="userSpaceOnUse">
<stop stop-color="white"/>
<stop offset="1" stop-color="white" stop-opacity="0"/>
</linearGradient>
<linearGradient id="paint7_linear_161_329" x1="81.1266" y1="7.70898" x2="81.1266" y2="39.873" gradientUnits="userSpaceOnUse">
<stop stop-color="white"/>
<stop offset="1" stop-color="white" stop-opacity="0"/>
</linearGradient>
<linearGradient id="paint8_linear_161_329" x1="140.354" y1="7.89209" x2="140.354" y2="39.7794" gradientUnits="userSpaceOnUse">
<stop stop-color="white"/>
<stop offset="1" stop-color="white" stop-opacity="0"/>
</linearGradient>
<linearGradient id="paint9_linear_161_329" x1="263.653" y1="7.9856" x2="263.653" y2="40.0271" gradientUnits="userSpaceOnUse">
<stop stop-color="white"/>
<stop offset="1" stop-color="white" stop-opacity="0"/>
</linearGradient>
</defs>
</svg>
