<svg width="35" height="410" viewBox="0 0 35 410" fill="none" xmlns="http://www.w3.org/2000/svg">
<path d="M0.674805 387.172L0.674805 376.332V375.673C0.674805 374.452 1.09798 373.842 1.94434 373.842C2.61165 373.842 3.05111 374.167 3.2627 374.818C3.44173 375.355 3.55566 375.673 3.60449 375.771C3.63704 375.852 3.72656 375.941 3.87305 376.039C4.13346 376.234 4.5485 376.332 5.11816 376.332H29.5566C30.1263 376.332 30.5413 376.234 30.8018 376.039C30.9482 375.941 31.0459 375.852 31.0947 375.771C31.1273 375.673 31.2331 375.355 31.4121 374.818C31.6237 374.167 32.0632 373.842 32.7305 373.842C33.5768 373.842 34 374.452 34 375.673V376.332V387.196V388.002C34 388.718 33.8942 389.263 33.6826 389.638C33.4548 389.996 33.1211 390.175 32.6816 390.175C31.9655 390.175 31.5179 389.784 31.3389 389.003C31.1761 388.368 31.0785 387.994 31.0459 387.88C30.9971 387.766 30.8994 387.652 30.7529 387.538C30.46 387.294 29.9961 387.172 29.3613 387.172H0.674805ZM0.674805 396.156L14.3711 391.347L6.97363 389.223H15.0791L34 394.862V396.156L5.89941 405.629C4.9554 405.954 4.32064 406.296 3.99512 406.654C3.78353 406.866 3.62891 407.232 3.53125 407.753C3.30339 408.811 2.79883 409.34 2.01758 409.34C1.5944 409.34 1.26888 409.193 1.04102 408.9C0.796875 408.591 0.674805 408.152 0.674805 407.582L0.674805 396.156ZM11.9053 405.629L19.2783 403.041H26.627C27.3757 403.041 27.9128 403.017 28.2383 402.968C28.5638 402.903 28.9219 402.772 29.3125 402.577C30.0286 402.235 30.5658 401.763 30.9238 401.161L31.5098 400.258C31.8841 399.639 32.2992 399.33 32.7549 399.33C33.585 399.33 34 399.94 34 401.161V407.289C34 408.51 33.5931 409.12 32.7793 409.12C32.5189 409.12 32.3236 409.071 32.1934 408.974C32.0469 408.86 31.8841 408.648 31.7051 408.339C30.7285 406.532 29.0358 405.629 26.627 405.629H11.9053ZM0.674805 360.048L0.674805 350.209L29.3613 343.422C29.8659 343.292 30.3135 343.145 30.7041 342.982C31.0133 342.836 31.2656 342.51 31.4609 342.006C31.64 341.583 31.819 341.29 31.998 341.127C32.1771 340.964 32.4212 340.883 32.7305 340.883C33.5768 340.883 34 341.518 34 342.787L34 354.97C34 355.458 33.8861 355.849 33.6582 356.142C33.4141 356.435 33.0967 356.581 32.7061 356.581C32.3805 356.581 32.1364 356.516 31.9736 356.386C31.8109 356.256 31.6074 355.963 31.3633 355.507C31.2005 355.181 31.0215 354.953 30.8262 354.823C30.6309 354.693 30.3867 354.628 30.0938 354.628C29.8171 354.628 29.5729 354.652 29.3613 354.701L25.8213 355.482V362.294L22.916 361.635V356.166L3.06738 360.658L0.674805 360.048ZM6.87598 361.732L11.9297 360.487L27.7012 364.809C28.1569 364.939 28.5801 365.004 28.9707 365.004C29.9961 365.004 30.7285 364.524 31.168 363.563L31.5586 362.709C31.8027 362.172 32.2096 361.903 32.7793 361.903C33.5931 361.903 34 362.497 34 363.686V369.887C34 370.489 33.8779 370.969 33.6338 371.327C33.3734 371.669 33.0234 371.84 32.584 371.84C32.112 371.84 31.7214 371.482 31.4121 370.766C31.1191 370.098 30.8587 369.61 30.6309 369.301C30.3867 368.975 30.0612 368.666 29.6543 368.373C28.987 367.917 28.0999 367.543 26.9932 367.25L6.87598 361.732ZM0.674805 325.551H34V336.415V337.05C34 337.636 33.8942 338.091 33.6826 338.417C33.4548 338.726 33.1374 338.881 32.7305 338.881C32.0632 338.881 31.6237 338.555 31.4121 337.904C31.2331 337.367 31.1273 337.058 31.0947 336.977C31.0459 336.879 30.9482 336.781 30.8018 336.684C30.5413 336.488 30.1263 336.391 29.5566 336.391H5.11816C4.5485 336.391 4.13346 336.488 3.87305 336.684C3.72656 336.781 3.63704 336.879 3.60449 336.977C3.55566 337.058 3.44173 337.367 3.2627 337.904C3.05111 338.555 2.61165 338.881 1.94434 338.881C1.53743 338.881 1.22819 338.726 1.0166 338.417C0.788737 338.091 0.674805 337.636 0.674805 337.05V336.415L0.674805 325.551ZM27.0176 320.619H7.75488C6.56673 320.619 5.62272 320.79 4.92285 321.132C4.46712 321.343 4.13346 321.604 3.92188 321.913C3.71029 322.222 3.53125 322.711 3.38477 323.378H0.674805C0.674805 322.515 0.707357 321.783 0.772461 321.181C1.00033 319.114 1.87923 317.112 3.40918 315.175C4.8903 313.254 6.81901 311.83 9.19531 310.902C11.6042 309.942 14.2734 309.462 17.2031 309.462C20.5234 309.462 23.4775 310.072 26.0654 311.293C28.637 312.514 30.6634 314.263 32.1445 316.542C32.8607 317.649 33.349 318.682 33.6094 319.643C33.8698 320.587 34 321.832 34 323.378H31.3633C31.1842 322.694 31.0215 322.222 30.875 321.962C30.7285 321.685 30.5007 321.449 30.1914 321.254C29.8333 321.01 29.4346 320.847 28.9951 320.766C28.5394 320.668 27.8802 320.619 27.0176 320.619ZM0.674805 293.129H34V303.993V304.628C34 305.214 33.8942 305.67 33.6826 305.995C33.4548 306.304 33.1374 306.459 32.7305 306.459C32.0632 306.459 31.6237 306.133 31.4121 305.482C31.2331 304.945 31.1273 304.636 31.0947 304.555C31.0459 304.457 30.9482 304.359 30.8018 304.262C30.5413 304.066 30.1263 303.969 29.5566 303.969H5.11816C4.5485 303.969 4.13346 304.066 3.87305 304.262C3.72656 304.359 3.63704 304.457 3.60449 304.555C3.55566 304.636 3.44173 304.945 3.2627 305.482C3.05111 306.133 2.61165 306.459 1.94434 306.459C1.53743 306.459 1.22819 306.304 1.0166 305.995C0.788737 305.67 0.674805 305.214 0.674805 304.628V303.993L0.674805 293.129ZM0.674805 290.956L0.674805 281.117H9.31738C9.82194 281.117 10.1882 281.215 10.416 281.41C10.6439 281.605 10.7578 281.915 10.7578 282.338C10.7578 282.696 10.6846 282.956 10.5381 283.119C10.3916 283.282 10.0905 283.437 9.63477 283.583C7.74674 284.201 6.30632 285.113 5.31348 286.317C4.32064 287.506 3.72656 289.052 3.53125 290.956H0.674805ZM18.4482 291.078H15.6162C15.1605 290.134 14.6641 289.434 14.127 288.979C13.5898 288.523 12.8737 288.189 11.9785 287.978C11.36 287.847 10.9368 287.676 10.709 287.465C10.4648 287.253 10.3428 286.952 10.3428 286.562C10.3428 286.041 10.5462 285.683 10.9531 285.487C11.1647 285.373 11.6449 285.316 12.3936 285.316H21.6953C22.4603 285.316 22.9893 285.406 23.2822 285.585C23.5752 285.748 23.7217 286.057 23.7217 286.513C23.7217 286.887 23.6077 287.18 23.3799 287.392C23.152 287.603 22.7695 287.774 22.2324 287.904C21.1094 288.181 20.2467 288.58 19.6445 289.101C19.0423 289.605 18.6436 290.264 18.4482 291.078ZM34 290.932H31.3633C31.2005 289.874 30.9727 289.003 30.6797 288.319C30.3867 287.619 29.9391 286.92 29.3369 286.22C28.7347 285.52 28.1162 284.966 27.4814 284.56C26.8304 284.136 25.9759 283.738 24.918 283.363C24.3971 283.184 24.0472 282.997 23.8682 282.802C23.6729 282.606 23.5752 282.338 23.5752 281.996C23.5752 281.54 23.7135 281.223 23.9902 281.044C24.2507 280.865 24.7145 280.775 25.3818 280.775H34V290.932ZM34 251.283V262.147V262.782C34 263.368 33.8942 263.824 33.6826 264.149C33.4548 264.459 33.1374 264.613 32.7305 264.613C32.0632 264.613 31.6237 264.288 31.4121 263.637C31.2331 263.1 31.1273 262.79 31.0947 262.709C31.0459 262.611 30.9482 262.514 30.8018 262.416C30.5413 262.221 30.1263 262.123 29.5566 262.123H5.11816C4.5485 262.123 4.13346 262.221 3.87305 262.416C3.72656 262.514 3.63704 262.611 3.60449 262.709C3.55566 262.79 3.44173 263.1 3.2627 263.637C3.05111 264.288 2.61165 264.613 1.94434 264.613C1.53743 264.613 1.22819 264.459 1.0166 264.149C0.788737 263.824 0.674805 263.368 0.674805 262.782L0.674805 262.147L0.674805 251.259V250.429C0.674805 249.713 0.772461 249.2 0.967773 248.891C1.22819 248.467 1.56999 248.256 1.99316 248.256C2.70931 248.256 3.1569 248.646 3.33594 249.428C3.48242 250.062 3.58008 250.437 3.62891 250.551C3.67773 250.665 3.77539 250.787 3.92188 250.917C4.21484 251.161 4.67057 251.283 5.28906 251.283H34ZM34 249.306H31.2656C31.1191 248.508 30.9564 247.882 30.7773 247.426C30.5983 246.954 30.3379 246.506 29.9961 246.083C29.459 245.399 28.7184 244.773 27.7744 244.203C26.8304 243.633 25.7806 243.17 24.625 242.812C23.7298 242.551 23.1439 242.315 22.8672 242.104C22.5742 241.876 22.4277 241.55 22.4277 241.127C22.4277 240.671 22.6149 240.338 22.9893 240.126C23.1683 240.028 23.5264 239.979 24.0635 239.979H34V249.306ZM34 224.599V235.487V236.122C34 236.708 33.8942 237.164 33.6826 237.489C33.4548 237.799 33.1374 237.953 32.7305 237.953C32.0632 237.953 31.6237 237.628 31.4121 236.977C31.2331 236.439 31.1273 236.13 31.0947 236.049C31.0459 235.951 30.9482 235.854 30.8018 235.756C30.5413 235.561 30.1263 235.463 29.5566 235.463H5.11816C4.5485 235.463 4.13346 235.561 3.87305 235.756C3.72656 235.854 3.63704 235.951 3.60449 236.049C3.55566 236.13 3.44173 236.439 3.2627 236.977C3.05111 237.628 2.61165 237.953 1.94434 237.953C1.53743 237.953 1.22819 237.799 1.0166 237.489C0.788737 237.164 0.674805 236.708 0.674805 236.122V235.487L0.674805 224.599V223.964C0.674805 223.378 0.788737 222.93 1.0166 222.621C1.22819 222.296 1.53743 222.133 1.94434 222.133C2.61165 222.133 3.05111 222.458 3.2627 223.109C3.44173 223.646 3.55566 223.964 3.60449 224.062C3.63704 224.143 3.72656 224.232 3.87305 224.33C4.13346 224.525 4.5485 224.623 5.11816 224.623H29.5566C30.1263 224.623 30.5413 224.525 30.8018 224.33C30.9482 224.232 31.0459 224.143 31.0947 224.062C31.1273 223.964 31.2331 223.646 31.4121 223.109C31.6237 222.458 32.0632 222.133 32.7305 222.133C33.1374 222.133 33.4548 222.296 33.6826 222.621C33.8942 222.93 34 223.378 34 223.964V224.599ZM34 204.262V215.15V215.785C34 216.371 33.8942 216.827 33.6826 217.152C33.4548 217.462 33.1374 217.616 32.7305 217.616C32.0632 217.616 31.6237 217.291 31.4121 216.64C31.2331 216.103 31.1273 215.793 31.0947 215.712C31.0459 215.614 30.9482 215.517 30.8018 215.419C30.5413 215.224 30.1263 215.126 29.5566 215.126H5.11816C4.5485 215.126 4.13346 215.224 3.87305 215.419C3.72656 215.517 3.63704 215.614 3.60449 215.712C3.55566 215.793 3.44173 216.103 3.2627 216.64C3.05111 217.291 2.61165 217.616 1.94434 217.616C1.53743 217.616 1.22819 217.462 1.0166 217.152C0.788737 216.827 0.674805 216.371 0.674805 215.785V215.15L0.674805 204.262V203.627C0.674805 203.041 0.788737 202.593 1.0166 202.284C1.22819 201.959 1.53743 201.796 1.94434 201.796C2.61165 201.796 3.05111 202.121 3.2627 202.772C3.44173 203.31 3.55566 203.627 3.60449 203.725C3.63704 203.806 3.72656 203.896 3.87305 203.993C4.13346 204.188 4.5485 204.286 5.11816 204.286H29.5566C30.4681 204.286 31.0052 204.05 31.168 203.578L31.4121 202.821C31.6074 202.203 32.0469 201.894 32.7305 201.894C33.5768 201.894 34 202.471 34 203.627V204.262ZM10.3428 194.594L29.6299 187.221C30.1507 187.025 30.5495 186.822 30.8262 186.61C31.0866 186.399 31.29 186.122 31.4365 185.78C31.5993 185.438 31.7214 185.219 31.8027 185.121C32.0306 184.893 32.3317 184.779 32.7061 184.779C33.5687 184.779 34 185.39 34 186.61V198.891C34 199.477 33.8779 199.932 33.6338 200.258C33.3896 200.567 33.0397 200.722 32.584 200.722C32.0632 200.722 31.6563 200.421 31.3633 199.818C31.1842 199.444 31.0378 199.192 30.9238 199.062C30.7936 198.931 30.6227 198.858 30.4111 198.842C30.2972 198.842 30.0368 198.907 29.6299 199.037L20.3037 202.162C19.4411 202.455 18.7087 202.602 18.1064 202.602C17.5368 202.602 16.9183 202.366 16.251 201.894L8.02344 196.059C7.25846 195.505 6.46094 195.229 5.63086 195.229C5.17513 195.229 4.75195 195.351 4.36133 195.595C3.9707 195.839 3.69401 196.164 3.53125 196.571L3.16504 197.45C2.93717 198.004 2.55469 198.28 2.01758 198.28C1.57813 198.28 1.22005 198.109 0.943359 197.768C0.764323 197.54 0.674805 197.165 0.674805 196.645L0.674805 187.953C0.674805 187.383 0.805013 186.944 1.06543 186.635C1.30957 186.309 1.65951 186.146 2.11523 186.146C2.79883 186.146 3.28711 186.521 3.58008 187.27L4.09277 188.563C4.28809 189.101 4.72754 189.784 5.41113 190.614C5.93197 191.233 6.80273 191.998 8.02344 192.909L10.3428 194.594ZM0.674805 168.08H34V178.944V179.579C34 180.165 33.8942 180.621 33.6826 180.946C33.4548 181.256 33.1374 181.41 32.7305 181.41C32.0632 181.41 31.6237 181.085 31.4121 180.434C31.2331 179.896 31.1273 179.587 31.0947 179.506C31.0459 179.408 30.9482 179.311 30.8018 179.213C30.5413 179.018 30.1263 178.92 29.5566 178.92H5.11816C4.5485 178.92 4.13346 179.018 3.87305 179.213C3.72656 179.311 3.63704 179.408 3.60449 179.506C3.55566 179.587 3.44173 179.896 3.2627 180.434C3.05111 181.085 2.61165 181.41 1.94434 181.41C1.53743 181.41 1.22819 181.256 1.0166 180.946C0.788737 180.621 0.674805 180.165 0.674805 179.579V178.944L0.674805 168.08ZM0.674805 165.907L0.674805 156.068H9.31738C9.82194 156.068 10.1882 156.166 10.416 156.361C10.6439 156.557 10.7578 156.866 10.7578 157.289C10.7578 157.647 10.6846 157.908 10.5381 158.07C10.3916 158.233 10.0905 158.388 9.63477 158.534C7.74674 159.153 6.30632 160.064 5.31348 161.269C4.32064 162.457 3.72656 164.003 3.53125 165.907H0.674805ZM18.4482 166.029H15.6162C15.1605 165.085 14.6641 164.385 14.127 163.93C13.5898 163.474 12.8737 163.14 11.9785 162.929C11.36 162.799 10.9368 162.628 10.709 162.416C10.4648 162.204 10.3428 161.903 10.3428 161.513C10.3428 160.992 10.5462 160.634 10.9531 160.438C11.1647 160.325 11.6449 160.268 12.3936 160.268H21.6953C22.4603 160.268 22.9893 160.357 23.2822 160.536C23.5752 160.699 23.7217 161.008 23.7217 161.464C23.7217 161.838 23.6077 162.131 23.3799 162.343C23.152 162.554 22.7695 162.725 22.2324 162.855C21.1094 163.132 20.2467 163.531 19.6445 164.052C19.0423 164.556 18.6436 165.215 18.4482 166.029ZM34 165.883H31.3633C31.2005 164.825 30.9727 163.954 30.6797 163.271C30.3867 162.571 29.9391 161.871 29.3369 161.171C28.7347 160.471 28.1162 159.918 27.4814 159.511C26.8304 159.088 25.9759 158.689 24.918 158.314C24.3971 158.135 24.0472 157.948 23.8682 157.753C23.6729 157.558 23.5752 157.289 23.5752 156.947C23.5752 156.492 23.7135 156.174 23.9902 155.995C24.2507 155.816 24.7145 155.727 25.3818 155.727H34V165.883ZM0.674805 129.774L0.674805 119.936L29.3613 113.148C29.8659 113.018 30.3135 112.872 30.7041 112.709C31.0133 112.562 31.2656 112.237 31.4609 111.732C31.64 111.309 31.819 111.016 31.998 110.854C32.1771 110.691 32.4212 110.609 32.7305 110.609C33.5768 110.609 34 111.244 34 112.514L34 124.696C34 125.185 33.8861 125.575 33.6582 125.868C33.4141 126.161 33.0967 126.308 32.7061 126.308C32.3805 126.308 32.1364 126.243 31.9736 126.112C31.8109 125.982 31.6074 125.689 31.3633 125.233C31.2005 124.908 31.0215 124.68 30.8262 124.55C30.6309 124.42 30.3867 124.354 30.0938 124.354C29.8171 124.354 29.5729 124.379 29.3613 124.428L25.8213 125.209V132.021L22.916 131.361V125.893L3.06738 130.385L0.674805 129.774ZM6.87598 131.459L11.9297 130.214L27.7012 134.535C28.1569 134.665 28.5801 134.73 28.9707 134.73C29.9961 134.73 30.7285 134.25 31.168 133.29L31.5586 132.436C31.8027 131.898 32.2096 131.63 32.7793 131.63C33.5931 131.63 34 132.224 34 133.412V139.613C34 140.215 33.8779 140.696 33.6338 141.054C33.3734 141.396 33.0234 141.566 32.584 141.566C32.112 141.566 31.7214 141.208 31.4121 140.492C31.1191 139.825 30.8587 139.337 30.6309 139.027C30.3867 138.702 30.0612 138.393 29.6543 138.1C28.987 137.644 28.0999 137.27 26.9932 136.977L6.87598 131.459ZM0.015625 83.3877H2.72559C3.06738 84.82 4.20671 85.5361 6.14355 85.5361H28.873C29.752 85.5361 30.4274 85.4141 30.8994 85.1699C31.29 84.9583 31.6237 84.5107 31.9004 83.8271H34.6592C34.6592 84.348 34.6185 84.8281 34.5371 85.2676C34.4557 85.6908 34.293 86.2604 34.0488 86.9766C33.4629 88.6855 32.5677 90.2318 31.3633 91.6152C30.1589 92.9987 28.7184 94.138 27.042 95.0332C24.4215 96.4167 21.321 97.1084 17.7402 97.1084C14.2734 97.1084 11.1973 96.4899 8.51172 95.2529C5.82617 94.016 3.71842 92.2419 2.18848 89.9307C1.29329 88.596 0.650391 87.1637 0.259766 85.6338C0.0970052 84.999 0.015625 84.2503 0.015625 83.3877ZM2.67676 81.3857H0.0400391C0.28418 78.7327 0.772461 76.5518 1.50488 74.8428C1.73275 74.3382 1.84668 73.9476 1.84668 73.6709C1.84668 73.4105 1.78971 73.2152 1.67578 73.085C1.54557 72.9385 1.19564 72.6536 0.625977 72.2305C0.219076 71.9375 0.015625 71.5713 0.015625 71.1318C0.015625 70.6761 0.145833 70.3587 0.40625 70.1797C0.650391 69.9844 1.06543 69.8867 1.65137 69.8867H11.1484C12.3854 69.8867 13.0039 70.3424 13.0039 71.2539C13.0039 71.7096 12.8818 72.0514 12.6377 72.2793C12.3936 72.4909 11.9134 72.6943 11.1973 72.8896C10.2858 73.1338 9.22786 73.5732 8.02344 74.208C6.80273 74.8428 5.84245 75.4531 5.14258 76.0391C4.32878 76.7064 3.7347 77.4551 3.36035 78.2852C2.96973 79.1152 2.74186 80.1488 2.67676 81.3857ZM29.9229 70.3506C30.5739 71.0016 31.2412 71.8724 31.9248 72.9629C32.5921 74.0371 33.1211 75.0544 33.5117 76.0146C33.8535 76.8936 34.1302 77.8701 34.3418 78.9443C34.5534 80.0023 34.6592 80.9382 34.6592 81.752H31.9004C31.7865 81.2799 31.6481 80.93 31.4854 80.7021C31.3226 80.458 31.0947 80.2546 30.8018 80.0918C30.2972 79.8151 29.6543 79.6768 28.873 79.6768H21.7441C21.1094 79.6768 20.6536 79.7988 20.377 80.043C20.2142 80.1569 20.1165 80.2708 20.084 80.3848C20.0352 80.4987 19.9375 80.873 19.791 81.5078C19.5957 82.2891 19.14 82.6797 18.4238 82.6797C18.0007 82.6797 17.6751 82.5007 17.4473 82.1426C17.2194 81.7682 17.1055 81.223 17.1055 80.5068V79.7012V70.7656C17.1055 70.0332 17.2113 69.5205 17.4229 69.2275C17.6182 68.9183 17.9681 68.7637 18.4727 68.7637C18.7819 68.7637 19.0423 68.8288 19.2539 68.959C19.4492 69.0729 19.6608 69.2926 19.8887 69.6182C20.1165 69.9437 20.3281 70.1471 20.5234 70.2285C20.7188 70.3099 21.0768 70.3506 21.5977 70.3506H29.9229ZM24.2588 63.0264H5.11816C4.5485 63.0264 4.13346 63.124 3.87305 63.3193C3.72656 63.417 3.63704 63.5146 3.60449 63.6123C3.55566 63.6937 3.44173 64.0029 3.2627 64.54C3.05111 65.1911 2.61979 65.5166 1.96875 65.5166C1.54557 65.5166 1.22819 65.362 1.0166 65.0527C0.788737 64.7272 0.674805 64.2715 0.674805 63.6855V63.0508L0.674805 52.1621L0.674805 51.5273L0.772461 50.6484C0.853841 50.3717 1.00033 50.1439 1.21191 49.9648C1.4235 49.7858 1.67578 49.6963 1.96875 49.6963C2.61979 49.6963 3.05111 50.0218 3.2627 50.6729C3.44173 51.21 3.55566 51.5273 3.60449 51.625C3.63704 51.7064 3.72656 51.7959 3.87305 51.8936C4.13346 52.0889 4.5485 52.1865 5.11816 52.1865H25.6016C26.985 52.1865 27.9535 52.154 28.5068 52.0889C29.0439 52.0075 29.5322 51.8529 29.9717 51.625C30.3786 51.4134 30.6715 51.1774 30.8506 50.917C31.0296 50.6566 31.2331 50.1602 31.4609 49.4277H34.6592V49.9648C34.6592 52.0807 34.472 53.8385 34.0977 55.2383C33.6582 56.8822 33.0072 58.3226 32.1445 59.5596C31.2819 60.7965 30.3135 61.6755 29.2393 62.1963C28.0999 62.7497 26.4398 63.0264 24.2588 63.0264ZM34.6592 47.1816H31.4609C31.2493 45.554 30.582 44.195 29.459 43.1045C28.1732 41.8675 26.3258 41.249 23.917 41.249H7.99902C5.76921 41.249 4.21484 42.1035 3.33594 43.8125C3.07552 44.3171 2.85579 44.6507 2.67676 44.8135C2.48145 44.96 2.20475 45.0332 1.84668 45.0332C1.4235 45.0332 1.1224 44.8786 0.943359 44.5693C0.764323 44.2601 0.674805 43.7555 0.674805 43.0557L0.674805 37.0742C0.674805 36.5697 0.691081 36.236 0.723633 36.0732C0.739909 35.8942 0.796875 35.7233 0.894531 35.5605C1.13867 35.1374 1.47233 34.9258 1.89551 34.9258C2.25358 34.9258 2.55469 35.056 2.79883 35.3164C2.88021 35.3978 3.09993 35.7477 3.45801 36.3662C3.84863 37.0824 4.45085 37.6439 5.26465 38.0508C6.06217 38.4577 6.97363 38.6611 7.99902 38.6611H23.9414C26.6758 38.6611 28.9219 39.2633 30.6797 40.4678C31.9818 41.3467 33.0234 42.6081 33.8047 44.252C34.1953 45.0658 34.4801 46.0423 34.6592 47.1816ZM0.674805 17.4453L23.2334 4.45703H34L34 11.1221L5.43555 27.6992C4.81706 28.0573 4.38574 28.3503 4.1416 28.5781C3.89746 28.806 3.71842 29.099 3.60449 29.457L3.2627 30.3848C3.18132 30.6289 3.03483 30.8242 2.82324 30.9707C2.61165 31.1172 2.37565 31.1904 2.11523 31.1904C1.83854 31.1904 1.58626 31.1172 1.3584 30.9707C1.11426 30.8242 0.943359 30.6289 0.845703 30.3848C0.731771 30.1081 0.674805 29.3594 0.674805 28.1387L0.674805 17.4453ZM9.24414 27.6748L13.541 25.0869H26.627C27.7663 25.0869 28.7021 24.8997 29.4346 24.5254C30.167 24.1348 30.7692 23.5244 31.2412 22.6943L31.6563 21.9619C31.9004 21.5387 32.2666 21.3271 32.7549 21.3271C33.1292 21.3271 33.4385 21.4818 33.6826 21.791C33.8942 22.0514 34 22.5885 34 23.4023V29.042C34 30.5231 33.5768 31.2637 32.7305 31.2637C32.4375 31.2637 32.2096 31.1904 32.0469 31.0439C31.8678 30.8812 31.6318 30.5394 31.3389 30.0186C30.4762 28.4561 28.9056 27.6748 26.627 27.6748H9.24414ZM19.3271 4.45703L14.957 7.04492H8.19434C6.82715 7.04492 5.78548 7.24837 5.06934 7.65527C4.33691 8.0459 3.71029 8.74577 3.18945 9.75488C3.02669 10.0967 2.85579 10.3327 2.67676 10.4629C2.48145 10.5931 2.2373 10.6582 1.94434 10.6582C1.50488 10.6582 1.1875 10.5199 0.992188 10.2432C0.780599 9.9502 0.674805 9.48633 0.674805 8.85156L0.674805 2.74805C0.674805 1.91797 0.805013 1.37272 1.06543 1.1123C1.32585 0.835612 1.63509 0.697266 1.99316 0.697266C2.33496 0.697266 2.59538 0.778646 2.77441 0.941406C2.93717 1.08789 3.16504 1.4541 3.45801 2.04004C3.89746 2.90267 4.57292 3.55371 5.48438 3.99316C6.15169 4.30241 7.05501 4.45703 8.19434 4.45703H19.3271Z" fill="url(#paint0_linear_161_551)"/>
<defs>
<linearGradient id="paint0_linear_161_551" x1="-2" y1="205" x2="48" y2="205" gradientUnits="userSpaceOnUse">
<stop stop-color="white"/>
<stop offset="1" stop-color="white" stop-opacity="0"/>
</linearGradient>
</defs>
</svg>
