<svg width="57" height="57" viewBox="0 0 57 57" fill="none" xmlns="http://www.w3.org/2000/svg">
<path d="M0 55.1879C0.265288 54.7497 0.653693 54.6281 1.15789 54.6296C7.12906 54.6428 13.1017 54.6384 19.0729 54.6384C19.2898 54.6384 19.5067 54.6384 19.7793 54.6384C19.6547 53.4324 19.539 52.2748 19.4173 51.1172C19.0934 48.0414 18.7548 44.9672 18.4485 41.8885C18.2887 40.2737 19.344 39.1249 20.9621 39.097C21.7448 39.0838 22.5275 39.0941 23.3439 39.0941C23.3439 37.428 23.3439 35.8293 23.3439 34.2497C23.297 34.2233 23.2764 34.2028 23.2662 34.2072C21.1629 35.1406 18.982 35.9363 16.9784 37.05C14.925 38.19 14.0031 40.1755 13.9811 42.5186C13.9518 45.5958 13.9738 48.6715 13.9738 51.7487C13.9738 51.9319 13.9884 52.1195 13.9562 52.2968C13.8829 52.7056 13.6044 53.0089 13.2116 52.9562C12.9214 52.9166 12.6224 52.666 12.4128 52.4345C12.2941 52.3041 12.3293 52.0169 12.3278 51.8C12.3234 48.7785 12.3029 45.7555 12.3308 42.734C12.3645 39.0033 14.1057 36.373 17.528 34.8681C18.7167 34.345 19.9098 33.8336 21.0999 33.3148C21.2274 33.2591 21.3491 33.1903 21.5484 33.0892C21.3095 32.9895 21.1483 32.9236 20.9885 32.8562C16.9916 31.1769 15.6212 26.142 18.2609 22.6985C19.3704 21.2493 20.2982 19.7282 20.4916 17.8848C20.6045 16.8152 20.5811 15.7279 20.5708 14.6479C20.5503 12.6272 20.6309 10.63 21.3095 8.68987C23.2281 3.20659 28.7551 -0.440634 34.464 0.042927C40.5084 0.555794 45.3554 4.91077 46.2715 10.797C46.5236 12.4118 46.4737 14.0808 46.4825 15.7249C46.4913 17.2533 46.4986 18.7758 47.167 20.1869C47.4938 20.8771 47.8295 21.6024 48.3278 22.1636C51.5948 25.8387 50.006 31.4509 45.5064 33.0569C45.7775 33.1844 46.0018 33.2972 46.2304 33.3954C47.4396 33.9171 48.6722 34.3889 49.855 34.9633C52.9183 36.4506 54.5569 38.9285 54.6185 42.3281C54.6889 46.2098 54.6361 50.0929 54.6361 53.976C54.6361 54.1739 54.6361 54.3717 54.6361 54.6032C55.2575 54.6999 56.0344 54.423 56.2601 55.2919C56.3817 55.7564 56.071 56.0378 55.7353 56.2825C37.1579 56.2825 18.5804 56.2825 0.00293136 56.2825C0 55.9191 0 55.5527 0 55.1879ZM46.3213 54.6179C46.3447 54.4845 46.3755 54.3482 46.3917 54.2105C46.484 53.3738 46.5734 52.5356 46.6613 51.6989C47.0087 48.4415 47.3619 45.184 47.6976 41.9251C47.7899 41.0357 47.5114 40.7441 46.632 40.7441C38.1501 40.7426 29.6683 40.7426 21.1864 40.7441C20.2777 40.7441 20.0138 41.0137 20.1047 41.9017C20.4081 44.888 20.7247 47.8729 21.0398 50.8578C21.1717 52.1077 21.3124 53.3562 21.4502 54.6193C29.7577 54.6179 38.0168 54.6179 46.3213 54.6179ZM41.0551 4.52539C37.3719 10.12 32.2523 13.4932 25.7109 14.6509C25.6992 14.7945 25.6889 14.8663 25.6889 14.9395C25.6904 17.0276 25.6552 19.1157 25.7021 21.2024C25.7681 24.1477 27.7687 26.7032 30.6737 27.2395C32.2684 27.5341 33.951 27.4242 35.5911 27.3861C36.8105 27.3568 37.8907 26.8146 38.839 26.0526C40.0321 25.0943 40.803 23.8707 41.1372 22.3116C40.2856 22.8699 39.4883 23.3784 38.7086 23.9147C38.4858 24.0686 38.2659 24.2752 38.1384 24.5082C37.7236 25.2657 37.1344 25.805 36.2682 25.8695C35.3785 25.9354 34.4698 25.9515 33.586 25.8504C32.3842 25.7127 31.5238 24.5888 31.5839 23.4106C31.6484 22.1519 32.6172 21.1643 33.8704 21.1042C34.3643 21.0807 34.8612 21.1174 35.3536 21.0866C36.4954 21.0163 37.4598 21.3108 38.09 22.3878C39.4165 21.7533 40.4205 20.8375 41.0493 19.5377C41.1724 19.2828 41.2735 18.9882 41.2794 18.7098C41.3043 17.4833 41.2808 16.2554 41.2955 15.0289C41.2999 14.6992 41.1826 14.5908 40.8675 14.4662C39.7858 14.0354 38.7056 13.5856 37.6797 13.0404C36.8985 12.6258 36.746 12.1173 37.0553 11.6425C37.366 11.1663 37.8365 11.1883 38.5767 11.6748C40.4718 12.9203 42.5501 13.3584 44.8468 13.1079C44.8014 9.6775 43.5556 6.84794 41.0551 4.52539ZM22.2607 13.0375C28.2041 13.6559 36.0044 9.85921 39.6627 3.53189C36.9307 1.52878 32.2479 0.869376 28.3022 2.95162C24.1998 5.11592 22.1376 9.35073 22.2607 13.0375ZM43.6362 39.0941C44.6578 39.0941 45.6427 39.0926 46.6291 39.0941C48.4876 39.0985 49.5282 40.2092 49.3421 42.0687C49.0137 45.3467 48.6444 48.6202 48.2956 51.8967C48.2003 52.7965 48.1153 53.6962 48.0259 54.5959C49.7231 54.5959 51.3412 54.5959 52.9711 54.5959C52.9711 50.3259 53.062 46.094 52.9359 41.868C52.8641 39.4648 51.5552 37.6302 49.3772 36.5737C47.5525 35.6887 45.6559 34.9531 43.7901 34.1545C43.749 34.1369 43.6933 34.1515 43.6376 34.1515C43.6362 35.7912 43.6362 37.4134 43.6362 39.0941ZM37.1022 28.8397C34.6809 29.2544 32.3021 29.25 29.913 28.8499C29.8881 28.891 29.8485 28.9335 29.8353 28.9818C29.337 30.8531 28.1498 32.0913 26.3749 32.8239C24.9796 33.3998 25.0015 33.4218 25.0177 34.9457C25.0221 35.293 25.1554 35.4161 25.4632 35.4952C30.7001 36.8258 35.9311 36.8316 41.1519 35.4205C42.0532 35.1773 41.8759 35.4029 41.9712 34.3845C42.0474 33.5625 41.7528 33.1888 40.9921 32.9294C39.0134 32.2598 37.6313 30.9674 37.1022 28.8397ZM22.2226 14.7651C22.2226 15.1916 22.205 15.5901 22.2255 15.9872C22.3706 18.8666 21.4355 21.3606 19.6474 23.5982C18.0161 25.6379 18.2286 28.4865 20.0563 30.2889C21.7888 31.9975 24.8125 32.3067 26.9348 30.623C27.6017 30.094 28.0194 29.3965 28.2363 28.5745C28.3096 28.2961 28.2509 28.1144 27.9798 27.9444C25.3562 26.29 24.0401 23.903 24.0386 20.7979C24.0371 18.9853 24.0386 17.1727 24.0386 15.3615C24.0386 15.1666 24.0386 14.9718 24.0386 14.7666C23.4025 14.7651 22.8426 14.7651 22.2226 14.7651ZM42.94 14.8252C42.94 15.1022 42.94 15.3015 42.94 15.4993C42.94 17.2753 42.9532 19.0527 42.937 20.8287C42.9077 23.903 41.6091 26.2885 39.0017 27.9341C38.7042 28.1217 38.6587 28.3019 38.7467 28.6052C38.99 29.4419 39.4121 30.1702 40.1391 30.6523C41.1694 31.3366 42.2584 31.8216 43.5702 31.7176C45.5987 31.555 47.0893 30.6289 47.9321 28.7869C48.7734 26.9494 48.5828 25.1602 47.3033 23.5806C45.5797 21.4515 44.7428 19.0513 44.841 16.3184C44.8586 15.8129 44.8439 15.3044 44.8439 14.8252C44.1887 14.8252 43.6069 14.8252 42.94 14.8252ZM25.0543 39.0472C30.6898 39.0472 36.299 39.0472 41.9184 39.0472C41.9184 38.3321 41.9184 37.6639 41.9184 36.9342C36.299 38.4787 30.6957 38.5241 25.0543 37.0939C25.0543 37.7929 25.0543 38.4083 25.0543 39.0472ZM34.9931 22.7483C34.9931 22.7468 34.9931 22.7454 34.9931 22.7439C34.6648 22.7439 34.3364 22.7366 34.0081 22.7454C33.5538 22.7571 33.2812 23.015 33.2489 23.4487C33.2152 23.8898 33.4702 24.2151 33.907 24.2429C34.6149 24.2884 35.3287 24.2884 36.0366 24.24C36.4734 24.2107 36.724 23.8839 36.6903 23.4429C36.6581 23.037 36.4075 22.7732 35.978 22.7512C35.6497 22.7351 35.3214 22.7483 34.9931 22.7483Z" fill="#848484"/>
<path d="M0 8.59026C0.140705 7.98801 0.2477 7.37549 0.427978 6.7835C1.7251 2.50912 5.88177 -0.330702 10.2817 0.038562C14.8239 0.418084 18.4925 3.9217 19.0362 8.42028C19.3807 11.2718 18.5584 13.7702 16.6897 15.936C16.5827 16.0605 16.4713 16.1807 16.3145 16.3565C16.6706 16.5749 17.0063 16.7756 17.3375 16.9852C17.8813 17.3295 18.0777 17.7882 17.9209 18.3303C17.7772 18.833 17.3639 19.1319 16.7483 19.1333C14.2391 19.1377 11.7284 19.1817 9.22205 19.1202C4.72828 19.0103 0.750427 15.4275 0.10846 10.9861C0.0879407 10.8439 0.036642 10.7077 0.00146568 10.5685C0 9.90906 0 9.24966 0 8.59026ZM14.8341 17.5874C14.1438 16.4298 14.1936 16.1074 15.0862 15.2282C17.5339 12.8207 18.1671 9.17346 16.6692 6.12703C15.1419 3.02052 11.8427 1.27237 8.42179 1.75593C4.70776 2.28052 1.80865 5.44858 1.65622 9.15148C1.49646 13.0405 4.05407 16.591 7.82086 17.2313C10.0824 17.6153 12.4319 17.4834 14.8341 17.5874Z" fill="#848484"/>
<path d="M33.9041 50.8064C32.16 50.8094 30.769 49.4188 30.772 47.6794C30.7749 45.9488 32.1981 44.5333 33.9159 44.5495C35.6146 44.5656 37.0202 45.9694 37.0334 47.6648C37.0465 49.3909 35.6395 50.805 33.9041 50.8064ZM33.9041 49.1565C34.7132 49.1535 35.3771 48.4971 35.3815 47.6941C35.3874 46.9028 34.7147 46.217 33.9188 46.2009C33.1039 46.1862 32.415 46.8793 32.4238 47.7058C32.4341 48.522 33.0834 49.1594 33.9041 49.1565Z" fill="#848484"/>
<path d="M6.25559 10.3839C5.78364 10.3795 5.43335 10.0131 5.4524 9.5413C5.46999 9.09583 5.82175 8.76174 6.27025 8.76467C6.74073 8.7676 7.08956 9.1354 7.07198 9.6087C7.05439 10.0586 6.70849 10.3868 6.25559 10.3839Z" fill="#848484"/>
<path d="M10.3682 9.58658C10.3624 10.0584 9.99448 10.4042 9.52107 10.3837C9.07403 10.3647 8.74279 10.013 8.75012 9.56314C8.75745 9.09423 9.1312 8.74401 9.60021 8.76453C10.0458 8.78504 10.3741 9.13526 10.3682 9.58658Z" fill="#848484"/>
<path d="M13.666 9.58074C13.6631 10.0335 13.3304 10.372 12.8789 10.3837C12.407 10.3955 12.0435 10.0394 12.0479 9.56901C12.0523 9.10011 12.4231 8.74696 12.8921 8.76454C13.3392 8.78213 13.6689 9.12941 13.666 9.58074Z" fill="#848484"/>
</svg>
