<svg width="57" height="57" viewBox="0 0 57 57" fill="none" xmlns="http://www.w3.org/2000/svg">
<path d="M46.3961 0.00296704C46.9116 0.106813 47.426 0.222528 47.9444 0.31055C48.3589 0.38077 48.6755 0.566704 48.8022 0.977145C48.9347 1.40638 48.7675 1.75649 48.4579 2.06407C46.6801 3.8344 44.9151 5.61957 43.1234 7.37606C42.8296 7.66485 42.7752 7.89925 42.9088 8.27507C43.349 9.51529 43.7418 10.7713 44.187 12.0096C44.2592 12.2113 44.4719 12.4378 44.6698 12.508C45.9272 12.9551 47.2034 13.3497 48.4638 13.7888C48.8012 13.9065 49.0149 13.8719 49.2751 13.6078C51.0113 11.8474 52.7694 10.1087 54.5165 8.35914C54.8499 8.02584 55.1823 7.71924 55.7126 7.89331C56.233 8.06441 56.3339 8.49364 56.4249 8.96243C57.5399 14.7333 54.5215 19.5231 50.0378 21.5367C48.0345 22.4367 45.9341 22.7236 43.7616 22.3655C43.4014 22.3062 43.1551 22.3507 42.888 22.6227C41.3872 24.1507 39.8656 25.657 38.3153 27.2068C38.9445 27.8368 39.55 28.442 40.1555 29.0483C40.9252 29.8197 40.9311 30.2035 40.1723 30.9808C39.8517 31.3092 39.6034 31.6583 39.736 32.1498C39.918 32.8253 40.6501 33.13 41.2605 32.7848C41.3397 32.7403 41.4159 32.6879 41.4871 32.6305C42.7247 31.6346 42.7396 31.6356 43.8496 32.7452C47.334 36.2285 50.8154 39.7148 54.3048 43.1932C55.4217 44.3058 56.2449 45.5876 56.5298 47.1492C57.5241 52.5937 53.3936 56.2808 49.285 56.2837C47.0629 56.2857 45.2169 55.5182 43.6666 53.9704C40.0367 50.3477 36.4099 46.722 32.784 43.0943C32.132 42.4415 32.136 42.0133 32.7642 41.3576C32.9156 41.2003 33.0719 41.0381 33.1827 40.8532C33.437 40.4249 33.3825 39.9947 33.0491 39.6406C32.6979 39.2668 32.2498 39.1966 31.7996 39.4478C31.581 39.5694 31.4019 39.7662 31.2139 39.9383C30.6401 40.4645 30.187 40.4783 29.634 39.9363C28.9682 39.2836 28.3231 38.6101 27.4862 37.7585C27.3338 38.0157 27.2467 38.257 27.0835 38.4222C25.7588 39.7662 24.4301 41.1044 23.0797 42.4217C22.7849 42.7085 22.7028 42.9746 22.7542 43.3801C23.3241 47.8583 21.7896 51.4752 18.1875 54.1752C13.1469 57.9522 5.51916 56.4766 2.1881 51.1191C-1.75238 44.7825 1.07017 36.7942 8.12901 34.3524C9.81581 33.7689 11.56 33.6245 13.3279 33.933C13.6781 33.9944 13.9334 33.938 14.2045 33.666C20.8141 27.0396 27.4337 20.4221 34.0573 13.8096C34.2967 13.5702 34.3867 13.3596 34.3343 13.0016C33.4152 6.76584 37.3913 1.26791 43.6171 0.139451C43.8832 0.0909892 44.1504 0.0464836 44.4175 0C45.0774 0.00296704 45.7362 0.00296704 46.3961 0.00296704ZM45.9302 1.89297C44.1622 1.81385 42.5912 2.14616 41.128 2.9166C37.3121 4.92429 35.4304 8.89617 36.2753 13.1469C36.397 13.7582 36.3129 14.218 35.8499 14.6789C28.9088 21.5941 21.9806 28.5221 15.0602 35.4581C14.619 35.9002 14.1728 35.9645 13.5772 35.8982C12.5117 35.7795 11.4126 35.6282 10.3619 35.7597C4.96217 36.4352 1.30661 41.5257 2.31573 46.8575C3.03794 50.676 5.96931 53.6045 9.8445 54.3779C13.4872 55.1048 17.3555 53.4828 19.439 50.323C20.8893 48.1244 21.3474 45.7211 20.8072 43.1388C20.6974 42.6136 20.6974 42.1537 21.1258 41.7265C28.1282 34.742 35.1218 27.7497 42.1123 20.7544C42.4695 20.3974 42.8524 20.2906 43.354 20.3756C44.1098 20.5042 44.8785 20.6466 45.6393 20.6318C50.7699 20.5339 54.8262 16.3731 54.8163 11.2599C54.8163 11.1333 54.7737 11.0057 54.752 10.8791C54.7005 10.8524 54.6501 10.8257 54.5986 10.799C54.4799 10.9622 54.38 11.1432 54.2395 11.2846C52.8455 12.688 51.4367 14.0756 50.0507 15.4879C49.6253 15.9211 49.189 16.022 48.6162 15.8242C46.9403 15.2437 45.2564 14.6849 43.5686 14.1409C43.0285 13.9668 42.7198 13.6365 42.5476 13.1034C42.0095 11.434 41.4574 9.76848 40.8846 8.10991C40.6808 7.52045 40.7748 7.07144 41.2289 6.62738C42.6703 5.22001 44.0831 3.78396 45.5067 2.35781C45.6274 2.23319 45.7402 2.10066 45.9302 1.89297ZM36.9916 28.624C34.3422 31.2845 31.6839 33.9538 29.0849 36.5638C29.5291 37.0188 30.0079 37.5093 30.5026 38.0167C30.6065 37.9514 30.742 37.8584 30.8845 37.7793C32.0341 37.1394 33.4399 37.3402 34.3748 38.2748C35.2929 39.1916 35.5165 40.6633 34.8309 41.7611C34.5875 42.1507 34.6637 42.3337 34.9536 42.6215C38.2668 45.9149 41.5662 49.2212 44.8706 52.5225C45.0506 52.7025 45.2416 52.8697 45.3484 52.9686C48.0364 50.2784 50.6967 47.617 53.3095 45.0021C49.748 41.4555 46.133 37.8555 42.5071 34.2446C41.1685 35.0922 39.7874 35.0328 38.7378 34.0408C37.6258 32.9905 37.5258 31.6415 38.4152 30.0986C37.9275 29.5942 37.4487 29.0977 36.9916 28.624ZM47.2608 54.0545C49.193 54.8596 51.7899 54.2038 53.2492 52.6422C54.9004 50.8748 55.1477 48.0878 54.4374 46.8891C52.0472 49.2746 49.6471 51.671 47.2608 54.0545Z" fill="#848484"/>
<path d="M5.3916 0.00317383C7.41379 1.1712 9.41915 2.37087 11.4671 3.49241C12.21 3.8989 12.6651 4.40824 12.7601 5.24494C12.9787 7.16462 13.9433 8.60363 15.3502 9.93682C18.6318 13.0473 21.7738 16.3051 24.9743 19.5006C25.1168 19.642 25.283 19.7597 25.4116 19.8665C24.9288 20.3264 24.4985 20.7368 24.0256 21.1888C23.983 21.1493 23.8396 21.0197 23.703 20.8832C19.8823 17.0646 16.0555 13.252 12.2516 9.4166C11.9469 9.11 11.7203 8.67682 11.5878 8.26044C11.3177 7.4089 11.1426 6.5267 10.9111 5.66132C10.8675 5.49912 10.7795 5.29538 10.6489 5.21923C8.86414 4.17977 7.06752 3.15911 5.32928 2.16614C4.39041 3.09681 3.48517 3.99384 2.54235 4.92846C3.53761 6.6711 4.55562 8.46616 5.59541 10.2474C5.6795 10.3918 5.90507 10.4887 6.08314 10.5391C6.76974 10.731 7.45633 10.9397 8.15677 11.0584C8.97395 11.1978 9.58239 11.6013 10.1602 12.1839C13.8325 15.8917 17.5326 19.5728 21.2268 23.2588C21.3682 23.4002 21.5404 23.512 21.7333 23.6653C21.2139 24.1301 20.7667 24.5287 20.181 25.0539C20.1286 24.9668 20.0455 24.7453 19.8931 24.593C16.1832 20.8713 12.4692 17.1527 8.74047 13.4488C8.4971 13.2075 8.14985 13.0265 7.81743 12.9286C6.92407 12.6645 5.99905 12.5023 5.11558 12.2125C4.75349 12.0939 4.35182 11.8169 4.16088 11.4965C2.95292 9.47 1.7964 7.41286 0.62998 5.36165C0.284705 4.75538 0.319332 4.4023 0.787283 3.92857C1.95864 2.74274 3.13792 1.5668 4.32115 0.392845C4.4745 0.242515 4.66742 0.131745 4.84154 0.00317383C5.02457 0.00317383 5.20858 0.00317383 5.3916 0.00317383Z" fill="#848484"/>
<path d="M11.6162 50.6639C10.7555 50.6639 9.89378 50.6521 9.03309 50.6679C8.54437 50.6768 8.19416 50.4909 7.94485 50.0715C7.06536 48.594 6.18092 47.1184 5.28956 45.6478C5.03432 45.2265 5.03729 44.8338 5.29253 44.4135C6.18488 42.9429 7.06833 41.4683 7.94683 39.9898C8.18624 39.5862 8.5236 39.4053 8.98758 39.4072C10.7644 39.4122 12.5412 39.4122 14.3179 39.4072C14.7829 39.4063 15.1143 39.5932 15.3537 39.9977C16.2313 41.4762 17.1187 42.9498 18.01 44.4204C18.2653 44.8417 18.2574 45.2403 18.0041 45.6577C17.1127 47.1283 16.2263 48.6019 15.3458 50.0794C15.0946 50.5007 14.7424 50.6788 14.2536 50.6689C13.3751 50.6521 12.4956 50.6639 11.6162 50.6639ZM11.6448 48.7918C12.2859 48.7918 12.929 48.8165 13.5681 48.7769C13.759 48.7651 14.0113 48.6227 14.1132 48.4615C14.7572 47.4398 15.3785 46.4034 15.976 45.355C16.068 45.1928 16.0799 44.8932 15.9899 44.7349C15.3943 43.6846 14.773 42.6482 14.129 41.6275C14.0261 41.4643 13.7699 41.3071 13.5819 41.3031C12.2998 41.2745 11.0166 41.2754 9.73549 41.3021C9.54456 41.3061 9.28239 41.4545 9.18049 41.6157C8.53547 42.6363 7.9132 43.6728 7.31763 44.7221C7.22662 44.8823 7.22761 45.1849 7.31961 45.3461C7.91616 46.3954 8.53646 47.4329 9.18544 48.4506C9.29426 48.6207 9.57127 48.7621 9.78001 48.7759C10.3973 48.8195 11.0216 48.7918 11.6448 48.7918Z" fill="#848484"/>
<path d="M18.8217 39.0097C18.4497 38.6487 18.0312 38.2422 17.6533 37.8743C24.5232 31.0095 31.3842 24.1537 38.2659 17.2771C38.5983 17.648 38.9951 18.0901 39.3502 18.4867C32.5516 25.2841 25.6916 32.142 18.8217 39.0097Z" fill="#848484"/>
<path d="M47.5387 48.3972C44.4719 45.3313 41.3793 42.2407 38.2778 39.1403C38.7042 38.7585 39.1474 38.3599 39.5441 38.0039C42.5625 41.0193 45.6749 44.1267 48.8011 47.249C48.4231 47.5922 47.9829 47.9927 47.5387 48.3972Z" fill="#848484"/>
</svg>
