<svg width="63" height="57" viewBox="0 0 63 57" fill="none" xmlns="http://www.w3.org/2000/svg">
<path d="M0.00162541 54.677C0.121906 53.6731 0.264943 52.6692 0.360842 51.6621C0.850092 46.5155 1.33121 41.3674 1.80909 36.2209C2.23332 31.661 2.6673 27.1012 3.0574 22.5397C3.1338 21.6385 3.45726 21.0877 4.29922 20.6591C7.97428 18.7948 11.6136 16.862 15.2561 14.9324C15.8267 14.6309 16.3387 14.5837 16.9287 14.8477C17.9641 15.3138 19.0238 15.7261 20.0674 16.1759C20.7468 16.4692 21.002 17.0135 20.7565 17.5774C20.5095 18.1429 19.9585 18.3221 19.2644 18.0467C18.5525 17.7632 17.8454 17.4633 17.0685 17.1406C16.9872 18.2863 16.9043 19.357 16.8377 20.4277C16.4151 27.2756 15.999 34.1251 15.5747 40.973C15.4366 43.2089 15.2951 45.4432 15.1261 47.6775C15.0903 48.1387 15.2058 48.3473 15.6592 48.5103C20.277 50.1758 24.8851 51.8707 29.4964 53.5557C29.6833 53.6242 29.8784 53.6731 30.1547 53.7562C30.1709 53.4563 30.1969 53.2037 30.1969 52.9511C30.1986 46.2092 30.1986 39.4672 30.2002 32.7252C30.2002 32.4612 30.1904 32.1923 30.2343 31.9332C30.3254 31.3938 30.6878 31.1102 31.2112 31.1118C31.7346 31.1135 32.0971 31.3987 32.1865 31.9381C32.2287 32.1972 32.2206 32.4661 32.2206 32.7301C32.2222 39.4509 32.2222 46.1733 32.2222 52.8941C32.2222 53.1532 32.2222 53.4107 32.2222 53.7546C32.479 53.6845 32.6497 53.6503 32.8106 53.5916C37.4414 51.9049 42.069 50.21 46.7063 48.5396C47.1939 48.3636 47.3239 48.1257 47.2898 47.6156C46.9533 42.5375 46.6461 37.4562 46.3259 32.3765C46.0171 27.4793 45.7034 22.5821 45.3897 17.6866C45.3799 17.5285 45.3523 17.372 45.3263 17.1586C44.5949 17.4584 43.9057 17.7452 43.2116 18.0223C42.4672 18.3205 41.9211 18.1592 41.6642 17.5758C41.4091 16.9956 41.6821 16.4643 42.4103 16.1563C43.4928 15.6967 44.5851 15.2584 45.6644 14.7874C46.1325 14.5837 46.5584 14.613 47.0021 14.8444C50.8478 16.8636 54.6968 18.8811 58.5474 20.8938C59.0025 21.1317 59.2415 21.4707 59.2886 21.9922C59.5471 24.8294 59.8218 27.6667 60.0899 30.5023C60.4427 34.2506 60.7954 38.0005 61.1448 41.7487C61.4878 45.4171 61.8259 49.0855 62.1672 52.7539C62.2339 53.4628 62.2989 54.1734 62.3801 54.8807C62.4354 55.3533 62.3802 55.7851 61.9706 56.085C61.5577 56.3881 61.1302 56.2854 60.706 56.0801C56.7578 54.1734 52.8081 52.2764 48.8648 50.3583C48.4877 50.1742 48.1724 50.1497 47.7758 50.2948C42.5208 52.2276 37.2594 54.1375 32.0044 56.072C31.4566 56.274 30.9674 56.2757 30.418 56.0736C25.1663 54.1375 19.9048 52.2243 14.6515 50.2899C14.2533 50.1432 13.9379 50.1774 13.5625 50.3599C9.65496 52.2569 5.74096 54.1375 1.82534 56.0198C0.906981 56.4615 0.557517 56.3637 0 55.5293C0.00162541 55.2473 0.00162541 54.9622 0.00162541 54.677ZM2.23657 53.5264C2.45763 53.4368 2.55028 53.4042 2.63805 53.3634C5.98478 51.7533 9.33475 50.1481 12.6701 48.5152C12.8652 48.419 13.0472 48.1028 13.0667 47.8731C13.187 46.4944 13.2585 45.1108 13.3463 43.7288C13.6145 39.4819 13.8843 35.2349 14.1509 30.988C14.3833 27.3098 14.6141 23.6316 14.8433 19.9535C14.8937 19.137 14.9327 18.3189 14.9782 17.4747C14.8335 17.504 14.7685 17.504 14.7181 17.5301C11.625 19.15 8.53017 20.7667 5.44676 22.4061C5.27935 22.4957 5.13143 22.7646 5.1103 22.9651C4.91525 24.8066 4.74784 26.6514 4.57392 28.4962C4.22445 32.2054 3.87661 35.9129 3.52877 39.622C3.21995 42.9042 2.91112 46.188 2.60554 49.4718C2.48201 50.7853 2.3666 52.0988 2.23657 53.5264ZM60.1306 53.5248C60.1306 53.2738 60.142 53.1337 60.129 52.9951C59.682 48.1925 59.2334 43.3898 58.7831 38.5855C58.3004 33.4178 57.8111 28.2501 57.343 23.0808C57.3072 22.6848 57.1723 22.4729 56.8245 22.292C53.8857 20.7715 50.9567 19.2315 48.0245 17.698C47.8538 17.6083 47.675 17.5366 47.4328 17.4258C47.4832 18.3319 47.5239 19.1419 47.5743 19.9518C47.8831 24.8294 48.1952 29.7054 48.5024 34.5814C48.7803 38.9913 49.0615 43.3996 49.32 47.8111C49.3443 48.2153 49.4874 48.4141 49.8482 48.5836C51.7581 49.4816 53.6549 50.4088 55.5567 51.3247C57.052 52.0483 58.549 52.7653 60.1306 53.5248Z" fill="#848484"/>
<path d="M20.8425 10.1966C20.8457 5.29613 24.2038 1.29364 29.0492 0.237611C34.2148 -0.888495 39.5039 2.08729 41.1033 7.06269C41.9826 9.79892 41.7209 12.452 40.2532 14.9389C37.5989 19.4368 34.9202 23.9201 32.2464 28.4082C31.632 29.4398 30.7965 29.4512 30.1886 28.431C27.5034 23.9282 24.8199 19.4222 22.1461 14.9128C21.2553 13.4103 20.8051 11.7806 20.8425 10.1966ZM31.2029 26.0924C31.302 25.9653 31.3443 25.9213 31.3752 25.8692C33.7889 21.8178 36.2189 17.7762 38.605 13.7085C39.6193 11.9794 39.7948 10.0906 39.3007 8.1611C38.2165 3.92883 33.9482 1.32786 29.4669 2.24374C23.7438 3.41222 21.1984 9.56751 24.0624 14.1795C26.3884 17.9261 28.5892 21.751 30.8469 25.54C30.9461 25.7094 31.0582 25.8708 31.2029 26.0924Z" fill="#848484"/>
<path d="M31.1413 15.6105C28.2805 15.5534 25.9887 13.2116 26.0293 10.3873C26.07 7.50608 28.4561 5.1626 31.2778 5.22942C34.1402 5.29787 36.4271 7.63971 36.3897 10.4623C36.3491 13.3534 33.9906 15.6675 31.1413 15.6105ZM31.2079 7.26815C29.498 7.26815 28.0595 8.71041 28.0595 10.4248C28.0595 12.1392 29.4996 13.5815 31.2079 13.5799C32.9195 13.5783 34.358 12.136 34.3563 10.4232C34.3547 8.71041 32.9162 7.26815 31.2079 7.26815Z" fill="#848484"/>
</svg>
