<svg width="35" height="217" viewBox="0 0 35 217" fill="none" xmlns="http://www.w3.org/2000/svg">
<path d="M0.674805 194.172L0.674805 183.332V182.673C0.674805 181.452 1.09798 180.842 1.94434 180.842C2.61165 180.842 3.05111 181.167 3.2627 181.818C3.44173 182.355 3.55566 182.673 3.60449 182.771C3.63704 182.852 3.72656 182.941 3.87305 183.039C4.13346 183.234 4.5485 183.332 5.11816 183.332H29.5566C30.1263 183.332 30.5413 183.234 30.8018 183.039C30.9482 182.941 31.0459 182.852 31.0947 182.771C31.1273 182.673 31.2331 182.355 31.4121 181.818C31.6237 181.167 32.0632 180.842 32.7305 180.842C33.5768 180.842 34 181.452 34 182.673V183.332V194.196V195.002C34 195.718 33.8942 196.263 33.6826 196.638C33.4548 196.996 33.1211 197.175 32.6816 197.175C31.9655 197.175 31.5179 196.784 31.3389 196.003C31.1761 195.368 31.0785 194.994 31.0459 194.88C30.9971 194.766 30.8994 194.652 30.7529 194.538C30.46 194.294 29.9961 194.172 29.3613 194.172H0.674805ZM0.674805 203.156L14.3711 198.347L6.97363 196.223H15.0791L34 201.862V203.156L5.89941 212.629C4.9554 212.954 4.32064 213.296 3.99512 213.654C3.78353 213.866 3.62891 214.232 3.53125 214.753C3.30339 215.811 2.79883 216.34 2.01758 216.34C1.5944 216.34 1.26888 216.193 1.04102 215.9C0.796875 215.591 0.674805 215.152 0.674805 214.582L0.674805 203.156ZM11.9053 212.629L19.2783 210.041H26.627C27.3757 210.041 27.9128 210.017 28.2383 209.968C28.5638 209.903 28.9219 209.772 29.3125 209.577C30.0286 209.235 30.5658 208.763 30.9238 208.161L31.5098 207.258C31.8841 206.639 32.2992 206.33 32.7549 206.33C33.585 206.33 34 206.94 34 208.161V214.289C34 215.51 33.5931 216.12 32.7793 216.12C32.5189 216.12 32.3236 216.071 32.1934 215.974C32.0469 215.86 31.8841 215.648 31.7051 215.339C30.7285 213.532 29.0358 212.629 26.627 212.629H11.9053ZM34 163.508V174.372V175.007C34 175.593 33.8942 176.049 33.6826 176.374C33.4548 176.683 33.1374 176.838 32.7305 176.838C32.0632 176.838 31.6237 176.512 31.4121 175.861C31.2331 175.324 31.1273 175.015 31.0947 174.934C31.0459 174.836 30.9482 174.738 30.8018 174.641C30.5413 174.445 30.1263 174.348 29.5566 174.348H5.11816C4.5485 174.348 4.13346 174.445 3.87305 174.641C3.72656 174.738 3.63704 174.836 3.60449 174.934C3.55566 175.015 3.44173 175.324 3.2627 175.861C3.05111 176.512 2.61165 176.838 1.94434 176.838C1.53743 176.838 1.22819 176.683 1.0166 176.374C0.788737 176.049 0.674805 175.593 0.674805 175.007V174.372L0.674805 163.483V162.653C0.674805 161.937 0.772461 161.424 0.967773 161.115C1.22819 160.692 1.56999 160.48 1.99316 160.48C2.70931 160.48 3.1569 160.871 3.33594 161.652C3.48242 162.287 3.58008 162.661 3.62891 162.775C3.67773 162.889 3.77539 163.011 3.92188 163.142C4.21484 163.386 4.67057 163.508 5.28906 163.508H34ZM34 161.53H31.2656C31.1191 160.733 30.9564 160.106 30.7773 159.65C30.5983 159.178 30.3379 158.731 29.9961 158.308C29.459 157.624 28.7184 156.997 27.7744 156.428C26.8304 155.858 25.7806 155.394 24.625 155.036C23.7298 154.776 23.1439 154.54 22.8672 154.328C22.5742 154.1 22.4277 153.775 22.4277 153.352C22.4277 152.896 22.6149 152.562 22.9893 152.351C23.1683 152.253 23.5264 152.204 24.0635 152.204H34L34 161.53ZM0.015625 137.458H2.72559C3.06738 138.89 4.20671 139.606 6.14355 139.606H28.873C29.752 139.606 30.4274 139.484 30.8994 139.24C31.29 139.029 31.6237 138.581 31.9004 137.897H34.6592C34.6592 138.418 34.6185 138.898 34.5371 139.338C34.4557 139.761 34.293 140.331 34.0488 141.047C33.4629 142.756 32.5677 144.302 31.3633 145.686C30.1589 147.069 28.7184 148.208 27.042 149.104C24.4215 150.487 21.321 151.179 17.7402 151.179C14.2734 151.179 11.1973 150.56 8.51172 149.323C5.82617 148.086 3.71842 146.312 2.18848 144.001C1.29329 142.666 0.650391 141.234 0.259766 139.704C0.0970052 139.069 0.015625 138.321 0.015625 137.458ZM2.67676 135.456H0.0400391C0.28418 132.803 0.772461 130.622 1.50488 128.913C1.73275 128.409 1.84668 128.018 1.84668 127.741C1.84668 127.481 1.78971 127.285 1.67578 127.155C1.54557 127.009 1.19564 126.724 0.625977 126.301C0.219076 126.008 0.015625 125.642 0.015625 125.202C0.015625 124.746 0.145833 124.429 0.40625 124.25C0.650391 124.055 1.06543 123.957 1.65137 123.957H11.1484C12.3854 123.957 13.0039 124.413 13.0039 125.324C13.0039 125.78 12.8818 126.122 12.6377 126.35C12.3936 126.561 11.9134 126.765 11.1973 126.96C10.2858 127.204 9.22786 127.644 8.02344 128.278C6.80273 128.913 5.84245 129.523 5.14258 130.109C4.32878 130.777 3.7347 131.525 3.36035 132.355C2.96973 133.186 2.74186 134.219 2.67676 135.456ZM29.9229 124.421C30.5739 125.072 31.2412 125.943 31.9248 127.033C32.5921 128.107 33.1211 129.125 33.5117 130.085C33.8535 130.964 34.1302 131.94 34.3418 133.015C34.5534 134.073 34.6592 135.008 34.6592 135.822H31.9004C31.7865 135.35 31.6481 135 31.4854 134.772C31.3226 134.528 31.0947 134.325 30.8018 134.162C30.2972 133.885 29.6543 133.747 28.873 133.747H21.7441C21.1094 133.747 20.6536 133.869 20.377 134.113C20.2142 134.227 20.1165 134.341 20.084 134.455C20.0352 134.569 19.9375 134.943 19.791 135.578C19.5957 136.359 19.14 136.75 18.4238 136.75C18.0007 136.75 17.6751 136.571 17.4473 136.213C17.2194 135.839 17.1055 135.293 17.1055 134.577V133.771L17.1055 124.836C17.1055 124.104 17.2113 123.591 17.4229 123.298C17.6182 122.989 17.9681 122.834 18.4727 122.834C18.7819 122.834 19.0423 122.899 19.2539 123.029C19.4492 123.143 19.6608 123.363 19.8887 123.688C20.1165 124.014 20.3281 124.217 20.5234 124.299C20.7188 124.38 21.0768 124.421 21.5977 124.421H29.9229ZM0.674805 89.582H29.3613C29.9961 89.582 30.4518 89.46 30.7285 89.2158C30.8913 89.0856 30.9971 88.9635 31.0459 88.8496C31.0785 88.7357 31.1761 88.3613 31.3389 87.7266C31.5179 86.9453 31.9655 86.5547 32.6816 86.5547C33.1048 86.5547 33.4466 86.7663 33.707 87.1895C33.9023 87.4987 34 88.0114 34 88.7275V89.5576V98.9326V99.7383C34 100.471 33.9023 100.983 33.707 101.276C33.4466 101.7 33.1048 101.911 32.6816 101.911C31.9655 101.911 31.5179 101.521 31.3389 100.739C31.1761 100.104 31.0785 99.7301 31.0459 99.6162C30.9971 99.5023 30.8913 99.3883 30.7285 99.2744C30.4518 99.0303 29.9961 98.9082 29.3613 98.9082H6.50977C5.66341 98.9082 5.04492 98.9977 4.6543 99.1768C4.26367 99.3395 4.04395 99.6081 3.99512 99.9824L3.87305 100.837C3.75911 101.602 3.36849 101.984 2.70117 101.984C2.18034 101.984 1.77344 101.74 1.48047 101.252C1.35026 101.008 1.26074 100.503 1.21191 99.7383L0.674805 89.582ZM34.415 65.583H31.9492C31.7865 65.0622 31.6156 64.6715 31.4365 64.4111C31.2575 64.1344 30.9971 63.8984 30.6553 63.7031C29.9717 63.2962 29.223 63.0928 28.4092 63.0928H5.875C5.1263 63.0928 4.59733 63.1172 4.28809 63.166C3.96257 63.2148 3.68587 63.3288 3.45801 63.5078C3.11621 63.7682 2.84766 64.2728 2.65234 65.0215H0.259766C0.422526 63.459 0.886393 61.9941 1.65137 60.627C2.40007 59.2598 3.42546 58.0391 4.72754 56.9648C6.15983 55.7604 7.99902 54.8327 10.2451 54.1816C12.4912 53.5143 14.9245 53.1807 17.5449 53.1807C23.1439 53.1807 27.571 54.7839 30.8262 57.9902C31.9655 59.1133 32.8525 60.3421 33.4873 61.6768C34.1058 62.9951 34.415 64.2972 34.415 65.583ZM31.9492 67.4141H34.415C34.415 69.0254 34.0244 70.6611 33.2432 72.3213C32.5758 73.721 31.7132 74.8197 30.6553 75.6172C29.5811 76.3984 28.4255 76.7891 27.1885 76.7891C25.8376 76.7891 24.7064 76.3333 23.7949 75.4219C22.8835 74.5104 22.4277 73.3711 22.4277 72.0039C22.4277 70.7995 22.8265 69.7741 23.624 68.9277C24.4053 68.0651 25.3574 67.6338 26.4805 67.6338C27.2454 67.6338 27.8965 67.821 28.4336 68.1953L29.5566 68.9766C29.8496 69.1882 30.1344 69.2939 30.4111 69.2939C30.8831 69.2939 31.29 69.0417 31.6318 68.5371C31.7946 68.293 31.9004 67.9186 31.9492 67.4141ZM15.9336 65.0215H18.7412C19.7178 66.7956 20.2061 68.5127 20.2061 70.1729C20.2061 71.182 20.0107 72.1992 19.6201 73.2246C19.2295 74.2337 18.6924 75.1208 18.0088 75.8857C17.2275 76.7321 16.2835 77.3913 15.1768 77.8633C14.0537 78.3353 12.8574 78.5713 11.5879 78.5713C9.76497 78.5713 8.00716 78.1562 6.31445 77.3262C4.62174 76.4798 3.29525 75.3649 2.33496 73.9814C0.951497 71.9632 0.259766 69.5869 0.259766 66.8525H2.65234C2.8151 67.4873 3.07552 67.9512 3.43359 68.2441C3.79167 68.5208 4.3125 68.6592 4.99609 68.6592H14.2979C15.0303 68.6592 15.6081 68.5046 16.0313 68.1953C16.4382 67.8861 16.6335 67.471 16.6172 66.9502C16.6009 66.4619 16.373 65.819 15.9336 65.0215ZM34.415 37.7266C34.2035 39.4355 33.7233 40.9574 32.9746 42.292C32.2096 43.6104 31.111 44.8392 29.6787 45.9785C28.1162 47.2318 26.2852 48.1839 24.1855 48.835C22.0859 49.486 19.7992 49.8115 17.3252 49.8115C14.8675 49.8115 12.5889 49.486 10.4893 48.835C8.38965 48.1839 6.55859 47.2318 4.99609 45.9785C3.5638 44.8392 2.47331 43.6104 1.72461 42.292C0.959635 40.9574 0.471354 39.4355 0.259766 37.7266H2.79883C2.94531 38.1823 3.07552 38.4997 3.18945 38.6787C3.28711 38.8577 3.44173 39.0286 3.65332 39.1914C4.25553 39.6634 5.1263 39.8994 6.26563 39.8994H28.4092C29.5485 39.8994 30.4193 39.6634 31.0215 39.1914C31.2331 39.0286 31.3958 38.8577 31.5098 38.6787C31.6074 38.4997 31.7295 38.1823 31.876 37.7266H34.415ZM34.415 35.8467H31.876C31.7295 35.391 31.6074 35.0736 31.5098 34.8945C31.3958 34.7155 31.2331 34.5446 31.0215 34.3818C30.4193 33.9098 29.5485 33.6738 28.4092 33.6738H6.26563C5.1263 33.6738 4.25553 33.9098 3.65332 34.3818C3.44173 34.5446 3.28711 34.7155 3.18945 34.8945C3.07552 35.0736 2.94531 35.391 2.79883 35.8467H0.259766C0.471354 34.1377 0.959635 32.624 1.72461 31.3057C2.47331 29.971 3.5638 28.734 4.99609 27.5947C6.55859 26.3415 8.38965 25.3893 10.4893 24.7383C12.5889 24.0872 14.8675 23.7617 17.3252 23.7617C19.7992 23.7617 22.0859 24.0872 24.1855 24.7383C26.2852 25.3893 28.1162 26.3415 29.6787 27.5947C31.111 28.734 32.2096 29.971 32.9746 31.3057C33.7233 32.624 34.2035 34.1377 34.415 35.8467ZM0.674805 3.35156H29.3613C29.9961 3.35156 30.4518 3.22949 30.7285 2.98535C30.8913 2.85514 30.9971 2.73307 31.0459 2.61914C31.0785 2.50521 31.1761 2.13086 31.3389 1.49609C31.5179 0.714844 31.9655 0.324219 32.6816 0.324219C33.1048 0.324219 33.4466 0.535807 33.707 0.958984C33.9023 1.26823 34 1.78092 34 2.49707V3.32715V12.7021V13.5078C34 14.2402 33.9023 14.7529 33.707 15.0459C33.4466 15.4691 33.1048 15.6807 32.6816 15.6807C31.9655 15.6807 31.5179 15.29 31.3389 14.5088C31.1761 13.874 31.0785 13.4997 31.0459 13.3857C30.9971 13.2718 30.8913 13.1579 30.7285 13.0439C30.4518 12.7998 29.9961 12.6777 29.3613 12.6777H6.50977C5.66341 12.6777 5.04492 12.7673 4.6543 12.9463C4.26367 13.109 4.04395 13.3776 3.99512 13.752L3.87305 14.6064C3.75911 15.3714 3.36849 15.7539 2.70117 15.7539C2.18034 15.7539 1.77344 15.5098 1.48047 15.0215C1.35026 14.7773 1.26074 14.2728 1.21191 13.5078L0.674805 3.35156Z" fill="url(#paint0_linear_161_552)"/>
<defs>
<linearGradient id="paint0_linear_161_552" x1="-2" y1="105.5" x2="48" y2="105.5" gradientUnits="userSpaceOnUse">
<stop stop-color="white"/>
<stop offset="1" stop-color="white" stop-opacity="0"/>
</linearGradient>
</defs>
</svg>
